{
  "asset": {
    "version": "2.0"
  },
  "extensionsUsed": [
    "KHR_meshopt_compression"
  ],
  "extensionsRequired": [
    "KHR_meshopt_compression"
  ],
  "buffers": [
    {
      "uri": "meshopt-task-shape-60-view.bin",
      "byteLength": 9546
    },
    {
      "byteLength": 20400,
      "extensions": {
        "KHR_meshopt_compression": {
          "fallback": true
        }
      }
    }
  ],
  "bufferViews": [
    {
      "buffer": 1,
      "byteOffset": 0,
      "byteLength": 340,
      "byteStride": 20,
      "target": 34962,
      "extensions": {
        "KHR_meshopt_compression": {
          "buffer": 0,
          "byteOffset": 0,
          "byteLength": 159,
          "byteStride": 20,
          "count": 17,
          "mode": "ATTRIBUTES",
          "filter": "NONE"
        }
      }
    },
    {
      "buffer": 1,
      "byteOffset": 340,
      "byteLength": 340,
      "byteStride": 20,
      "target": 34962,
      "extensions": {
        "KHR_meshopt_compression": {
          "buffer": 0,
          "byteOffset": 159,
          "byteLength": 159,
          "byteStride": 20,
          "count": 17,
          "mode": "ATTRIBUTES",
          "filter": "NONE"
        }
      }
    },
    {
      "buffer": 1,
      "byteOffset": 680,
      "byteLength": 340,
      "byteStride": 20,
      "target": 34962,
      "extensions": {
        "KHR_meshopt_compression": {
          "buffer": 0,
          "byteOffset": 318,
          "byteLength": 159,
          "byteStride": 20,
          "count": 17,
          "mode": "ATTRIBUTES",
          "filter": "NONE"
        }
      }
    },
    {
      "buffer": 1,
      "byteOffset": 1020,
      "byteLength": 340,
      "byteStride": 20,
      "target": 34962,
      "extensions": {
        "KHR_meshopt_compression": {
          "buffer": 0,
          "byteOffset": 477,
          "byteLength": 159,
          "byteStride": 20,
          "count": 17,
          "mode": "ATTRIBUTES",
          "filter": "NONE"
        }
      }
    },
    {
      "buffer": 1,
      "byteOffset": 1360,
      "byteLength": 340,
      "byteStride": 20,
      "target": 34962,
      "extensions": {
        "KHR_meshopt_compression": {
          "buffer": 0,
          "byteOffset": 636,
          "byteLength": 159,
          "byteStride": 20,
          "count": 17,
          "mode": "ATTRIBUTES",
          "filter": "NONE"
        }
      }
    },
    {
      "buffer": 1,
      "byteOffset": 1700,
      "byteLength": 340,
      "byteStride": 20,
      "target": 34962,
      "extensions": {
        "KHR_meshopt_compression": {
          "buffer": 0,
          "byteOffset": 795,
          "byteLength": 159,
          "byteStride": 20,
          "count": 17,
          "mode": "ATTRIBUTES",
          "filter": "NONE"
        }
      }
    },
    {
      "buffer": 1,
      "byteOffset": 2040,
      "byteLength": 340,
      "byteStride": 20,
      "target": 34962,
      "extensions": {
        "KHR_meshopt_compression": {
          "buffer": 0,
          "byteOffset": 954,
          "byteLength": 159,
          "byteStride": 20,
          "count": 17,
          "mode": "ATTRIBUTES",
          "filter": "NONE"
        }
      }
    },
    {
      "buffer": 1,
      "byteOffset": 2380,
      "byteLength": 340,
      "byteStride": 20,
      "target": 34962,
      "extensions": {
        "KHR_meshopt_compression": {
          "buffer": 0,
          "byteOffset": 1113,
          "byteLength": 159,
          "byteStride": 20,
          "count": 17,
          "mode": "ATTRIBUTES",
          "filter": "NONE"
        }
      }
    },
    {
      "buffer": 1,
      "byteOffset": 2720,
      "byteLength": 340,
      "byteStride": 20,
      "target": 34962,
      "extensions": {
        "KHR_meshopt_compression": {
          "buffer": 0,
          "byteOffset": 1272,
          "byteLength": 159,
          "byteStride": 20,
          "count": 17,
          "mode": "ATTRIBUTES",
          "filter": "NONE"
        }
      }
    },
    {
      "buffer": 1,
      "byteOffset": 3060,
      "byteLength": 340,
      "byteStride": 20,
      "target": 34962,
      "extensions": {
        "KHR_meshopt_compression": {
          "buffer": 0,
          "byteOffset": 1431,
          "byteLength": 159,
          "byteStride": 20,
          "count": 17,
          "mode": "ATTRIBUTES",
          "filter": "NONE"
        }
      }
    },
    {
      "buffer": 1,
      "byteOffset": 3400,
      "byteLength": 340,
      "byteStride": 20,
      "target": 34962,
      "extensions": {
        "KHR_meshopt_compression": {
          "buffer": 0,
          "byteOffset": 1590,
          "byteLength": 159,
          "byteStride": 20,
          "count": 17,
          "mode": "ATTRIBUTES",
          "filter": "NONE"
        }
      }
    },
    {
      "buffer": 1,
      "byteOffset": 3740,
      "byteLength": 340,
      "byteStride": 20,
      "target": 34962,
      "extensions": {
        "KHR_meshopt_compression": {
          "buffer": 0,
          "byteOffset": 1749,
          "byteLength": 159,
          "byteStride": 20,
          "count": 17,
          "mode": "ATTRIBUTES",
          "filter": "NONE"
        }
      }
    },
    {
      "buffer": 1,
      "byteOffset": 4080,
      "byteLength": 340,
      "byteStride": 20,
      "target": 34962,
      "extensions": {
        "KHR_meshopt_compression": {
          "buffer": 0,
          "byteOffset": 1908,
          "byteLength": 159,
          "byteStride": 20,
          "count": 17,
          "mode": "ATTRIBUTES",
          "filter": "NONE"
        }
      }
    },
    {
      "buffer": 1,
      "byteOffset": 4420,
      "byteLength": 340,
      "byteStride": 20,
      "target": 34962,
      "extensions": {
        "KHR_meshopt_compression": {
          "buffer": 0,
          "byteOffset": 2067,
          "byteLength": 159,
          "byteStride": 20,
          "count": 17,
          "mode": "ATTRIBUTES",
          "filter": "NONE"
        }
      }
    },
    {
      "buffer": 1,
      "byteOffset": 4760,
      "byteLength": 340,
      "byteStride": 20,
      "target": 34962,
      "extensions": {
        "KHR_meshopt_compression": {
          "buffer": 0,
          "byteOffset": 2226,
          "byteLength": 159,
          "byteStride": 20,
          "count": 17,
          "mode": "ATTRIBUTES",
          "filter": "NONE"
        }
      }
    },
    {
      "buffer": 1,
      "byteOffset": 5100,
      "byteLength": 340,
      "byteStride": 20,
      "target": 34962,
      "extensions": {
        "KHR_meshopt_compression": {
          "buffer": 0,
          "byteOffset": 2385,
          "byteLength": 159,
          "byteStride": 20,
          "count": 17,
          "mode": "ATTRIBUTES",
          "filter": "NONE"
        }
      }
    },
    {
      "buffer": 1,
      "byteOffset": 5440,
      "byteLength": 340,
      "byteStride": 20,
      "target": 34962,
      "extensions": {
        "KHR_meshopt_compression": {
          "buffer": 0,
          "byteOffset": 2544,
          "byteLength": 159,
          "byteStride": 20,
          "count": 17,
          "mode": "ATTRIBUTES",
          "filter": "NONE"
        }
      }
    },
    {
      "buffer": 1,
      "byteOffset": 5780,
      "byteLength": 340,
      "byteStride": 20,
      "target": 34962,
      "extensions": {
        "KHR_meshopt_compression": {
          "buffer": 0,
          "byteOffset": 2703,
          "byteLength": 159,
          "byteStride": 20,
          "count": 17,
          "mode": "ATTRIBUTES",
          "filter": "NONE"
        }
      }
    },
    {
      "buffer": 1,
      "byteOffset": 6120,
      "byteLength": 340,
      "byteStride": 20,
      "target": 34962,
      "extensions": {
        "KHR_meshopt_compression": {
          "buffer": 0,
          "byteOffset": 2862,
          "byteLength": 159,
          "byteStride": 20,
          "count": 17,
          "mode": "ATTRIBUTES",
          "filter": "NONE"
        }
      }
    },
    {
      "buffer": 1,
      "byteOffset": 6460,
      "byteLength": 340,
      "byteStride": 20,
      "target": 34962,
      "extensions": {
        "KHR_meshopt_compression": {
          "buffer": 0,
          "byteOffset": 3021,
          "byteLength": 159,
          "byteStride": 20,
          "count": 17,
          "mode": "ATTRIBUTES",
          "filter": "NONE"
        }
      }
    },
    {
      "buffer": 1,
      "byteOffset": 6800,
      "byteLength": 340,
      "byteStride": 20,
      "target": 34962,
      "extensions": {
        "KHR_meshopt_compression": {
          "buffer": 0,
          "byteOffset": 3180,
          "byteLength": 159,
          "byteStride": 20,
          "count": 17,
          "mode": "ATTRIBUTES",
          "filter": "NONE"
        }
      }
    },
    {
      "buffer": 1,
      "byteOffset": 7140,
      "byteLength": 340,
      "byteStride": 20,
      "target": 34962,
      "extensions": {
        "KHR_meshopt_compression": {
          "buffer": 0,
          "byteOffset": 3339,
          "byteLength": 159,
          "byteStride": 20,
          "count": 17,
          "mode": "ATTRIBUTES",
          "filter": "NONE"
        }
      }
    },
    {
      "buffer": 1,
      "byteOffset": 7480,
      "byteLength": 340,
      "byteStride": 20,
      "target": 34962,
      "extensions": {
        "KHR_meshopt_compression": {
          "buffer": 0,
          "byteOffset": 3498,
          "byteLength": 159,
          "byteStride": 20,
          "count": 17,
          "mode": "ATTRIBUTES",
          "filter": "NONE"
        }
      }
    },
    {
      "buffer": 1,
      "byteOffset": 7820,
      "byteLength": 340,
      "byteStride": 20,
      "target": 34962,
      "extensions": {
        "KHR_meshopt_compression": {
          "buffer": 0,
          "byteOffset": 3657,
          "byteLength": 159,
          "byteStride": 20,
          "count": 17,
          "mode": "ATTRIBUTES",
          "filter": "NONE"
        }
      }
    },
    {
      "buffer": 1,
      "byteOffset": 8160,
      "byteLength": 340,
      "byteStride": 20,
      "target": 34962,
      "extensions": {
        "KHR_meshopt_compression": {
          "buffer": 0,
          "byteOffset": 3816,
          "byteLength": 159,
          "byteStride": 20,
          "count": 17,
          "mode": "ATTRIBUTES",
          "filter": "NONE"
        }
      }
    },
    {
      "buffer": 1,
      "byteOffset": 8500,
      "byteLength": 340,
      "byteStride": 20,
      "target": 34962,
      "extensions": {
        "KHR_meshopt_compression": {
          "buffer": 0,
          "byteOffset": 3975,
          "byteLength": 159,
          "byteStride": 20,
          "count": 17,
          "mode": "ATTRIBUTES",
          "filter": "NONE"
        }
      }
    },
    {
      "buffer": 1,
      "byteOffset": 8840,
      "byteLength": 340,
      "byteStride": 20,
      "target": 34962,
      "extensions": {
        "KHR_meshopt_compression": {
          "buffer": 0,
          "byteOffset": 4134,
          "byteLength": 159,
          "byteStride": 20,
          "count": 17,
          "mode": "ATTRIBUTES",
          "filter": "NONE"
        }
      }
    },
    {
      "buffer": 1,
      "byteOffset": 9180,
      "byteLength": 340,
      "byteStride": 20,
      "target": 34962,
      "extensions": {
        "KHR_meshopt_compression": {
          "buffer": 0,
          "byteOffset": 4293,
          "byteLength": 159,
          "byteStride": 20,
          "count": 17,
          "mode": "ATTRIBUTES",
          "filter": "NONE"
        }
      }
    },
    {
      "buffer": 1,
      "byteOffset": 9520,
      "byteLength": 340,
      "byteStride": 20,
      "target": 34962,
      "extensions": {
        "KHR_meshopt_compression": {
          "buffer": 0,
          "byteOffset": 4452,
          "byteLength": 159,
          "byteStride": 20,
          "count": 17,
          "mode": "ATTRIBUTES",
          "filter": "NONE"
        }
      }
    },
    {
      "buffer": 1,
      "byteOffset": 9860,
      "byteLength": 340,
      "byteStride": 20,
      "target": 34962,
      "extensions": {
        "KHR_meshopt_compression": {
          "buffer": 0,
          "byteOffset": 4611,
          "byteLength": 159,
          "byteStride": 20,
          "count": 17,
          "mode": "ATTRIBUTES",
          "filter": "NONE"
        }
      }
    },
    {
      "buffer": 1,
      "byteOffset": 10200,
      "byteLength": 340,
      "byteStride": 20,
      "target": 34962,
      "extensions": {
        "KHR_meshopt_compression": {
          "buffer": 0,
          "byteOffset": 4770,
          "byteLength": 159,
          "byteStride": 20,
          "count": 17,
          "mode": "ATTRIBUTES",
          "filter": "NONE"
        }
      }
    },
    {
      "buffer": 1,
      "byteOffset": 10540,
      "byteLength": 340,
      "byteStride": 20,
      "target": 34962,
      "extensions": {
        "KHR_meshopt_compression": {
          "buffer": 0,
          "byteOffset": 4929,
          "byteLength": 159,
          "byteStride": 20,
          "count": 17,
          "mode": "ATTRIBUTES",
          "filter": "NONE"
        }
      }
    },
    {
      "buffer": 1,
      "byteOffset": 10880,
      "byteLength": 340,
      "byteStride": 20,
      "target": 34962,
      "extensions": {
        "KHR_meshopt_compression": {
          "buffer": 0,
          "byteOffset": 5088,
          "byteLength": 159,
          "byteStride": 20,
          "count": 17,
          "mode": "ATTRIBUTES",
          "filter": "NONE"
        }
      }
    },
    {
      "buffer": 1,
      "byteOffset": 11220,
      "byteLength": 340,
      "byteStride": 20,
      "target": 34962,
      "extensions": {
        "KHR_meshopt_compression": {
          "buffer": 0,
          "byteOffset": 5247,
          "byteLength": 159,
          "byteStride": 20,
          "count": 17,
          "mode": "ATTRIBUTES",
          "filter": "NONE"
        }
      }
    },
    {
      "buffer": 1,
      "byteOffset": 11560,
      "byteLength": 340,
      "byteStride": 20,
      "target": 34962,
      "extensions": {
        "KHR_meshopt_compression": {
          "buffer": 0,
          "byteOffset": 5406,
          "byteLength": 159,
          "byteStride": 20,
          "count": 17,
          "mode": "ATTRIBUTES",
          "filter": "NONE"
        }
      }
    },
    {
      "buffer": 1,
      "byteOffset": 11900,
      "byteLength": 340,
      "byteStride": 20,
      "target": 34962,
      "extensions": {
        "KHR_meshopt_compression": {
          "buffer": 0,
          "byteOffset": 5565,
          "byteLength": 159,
          "byteStride": 20,
          "count": 17,
          "mode": "ATTRIBUTES",
          "filter": "NONE"
        }
      }
    },
    {
      "buffer": 1,
      "byteOffset": 12240,
      "byteLength": 340,
      "byteStride": 20,
      "target": 34962,
      "extensions": {
        "KHR_meshopt_compression": {
          "buffer": 0,
          "byteOffset": 5724,
          "byteLength": 159,
          "byteStride": 20,
          "count": 17,
          "mode": "ATTRIBUTES",
          "filter": "NONE"
        }
      }
    },
    {
      "buffer": 1,
      "byteOffset": 12580,
      "byteLength": 340,
      "byteStride": 20,
      "target": 34962,
      "extensions": {
        "KHR_meshopt_compression": {
          "buffer": 0,
          "byteOffset": 5883,
          "byteLength": 159,
          "byteStride": 20,
          "count": 17,
          "mode": "ATTRIBUTES",
          "filter": "NONE"
        }
      }
    },
    {
      "buffer": 1,
      "byteOffset": 12920,
      "byteLength": 340,
      "byteStride": 20,
      "target": 34962,
      "extensions": {
        "KHR_meshopt_compression": {
          "buffer": 0,
          "byteOffset": 6042,
          "byteLength": 159,
          "byteStride": 20,
          "count": 17,
          "mode": "ATTRIBUTES",
          "filter": "NONE"
        }
      }
    },
    {
      "buffer": 1,
      "byteOffset": 13260,
      "byteLength": 340,
      "byteStride": 20,
      "target": 34962,
      "extensions": {
        "KHR_meshopt_compression": {
          "buffer": 0,
          "byteOffset": 6201,
          "byteLength": 159,
          "byteStride": 20,
          "count": 17,
          "mode": "ATTRIBUTES",
          "filter": "NONE"
        }
      }
    },
    {
      "buffer": 1,
      "byteOffset": 13600,
      "byteLength": 340,
      "byteStride": 20,
      "target": 34962,
      "extensions": {
        "KHR_meshopt_compression": {
          "buffer": 0,
          "byteOffset": 6360,
          "byteLength": 159,
          "byteStride": 20,
          "count": 17,
          "mode": "ATTRIBUTES",
          "filter": "NONE"
        }
      }
    },
    {
      "buffer": 1,
      "byteOffset": 13940,
      "byteLength": 340,
      "byteStride": 20,
      "target": 34962,
      "extensions": {
        "KHR_meshopt_compression": {
          "buffer": 0,
          "byteOffset": 6519,
          "byteLength": 159,
          "byteStride": 20,
          "count": 17,
          "mode": "ATTRIBUTES",
          "filter": "NONE"
        }
      }
    },
    {
      "buffer": 1,
      "byteOffset": 14280,
      "byteLength": 340,
      "byteStride": 20,
      "target": 34962,
      "extensions": {
        "KHR_meshopt_compression": {
          "buffer": 0,
          "byteOffset": 6678,
          "byteLength": 159,
          "byteStride": 20,
          "count": 17,
          "mode": "ATTRIBUTES",
          "filter": "NONE"
        }
      }
    },
    {
      "buffer": 1,
      "byteOffset": 14620,
      "byteLength": 340,
      "byteStride": 20,
      "target": 34962,
      "extensions": {
        "KHR_meshopt_compression": {
          "buffer": 0,
          "byteOffset": 6837,
          "byteLength": 159,
          "byteStride": 20,
          "count": 17,
          "mode": "ATTRIBUTES",
          "filter": "NONE"
        }
      }
    },
    {
      "buffer": 1,
      "byteOffset": 14960,
      "byteLength": 340,
      "byteStride": 20,
      "target": 34962,
      "extensions": {
        "KHR_meshopt_compression": {
          "buffer": 0,
          "byteOffset": 6996,
          "byteLength": 159,
          "byteStride": 20,
          "count": 17,
          "mode": "ATTRIBUTES",
          "filter": "NONE"
        }
      }
    },
    {
      "buffer": 1,
      "byteOffset": 15300,
      "byteLength": 340,
      "byteStride": 20,
      "target": 34962,
      "extensions": {
        "KHR_meshopt_compression": {
          "buffer": 0,
          "byteOffset": 7155,
          "byteLength": 159,
          "byteStride": 20,
          "count": 17,
          "mode": "ATTRIBUTES",
          "filter": "NONE"
        }
      }
    },
    {
      "buffer": 1,
      "byteOffset": 15640,
      "byteLength": 340,
      "byteStride": 20,
      "target": 34962,
      "extensions": {
        "KHR_meshopt_compression": {
          "buffer": 0,
          "byteOffset": 7314,
          "byteLength": 159,
          "byteStride": 20,
          "count": 17,
          "mode": "ATTRIBUTES",
          "filter": "NONE"
        }
      }
    },
    {
      "buffer": 1,
      "byteOffset": 15980,
      "byteLength": 340,
      "byteStride": 20,
      "target": 34962,
      "extensions": {
        "KHR_meshopt_compression": {
          "buffer": 0,
          "byteOffset": 7473,
          "byteLength": 159,
          "byteStride": 20,
          "count": 17,
          "mode": "ATTRIBUTES",
          "filter": "NONE"
        }
      }
    },
    {
      "buffer": 1,
      "byteOffset": 16320,
      "byteLength": 340,
      "byteStride": 20,
      "target": 34962,
      "extensions": {
        "KHR_meshopt_compression": {
          "buffer": 0,
          "byteOffset": 7632,
          "byteLength": 159,
          "byteStride": 20,
          "count": 17,
          "mode": "ATTRIBUTES",
          "filter": "NONE"
        }
      }
    },
    {
      "buffer": 1,
      "byteOffset": 16660,
      "byteLength": 340,
      "byteStride": 20,
      "target": 34962,
      "extensions": {
        "KHR_meshopt_compression": {
          "buffer": 0,
          "byteOffset": 7791,
          "byteLength": 159,
          "byteStride": 20,
          "count": 17,
          "mode": "ATTRIBUTES",
          "filter": "NONE"
        }
      }
    },
    {
      "buffer": 1,
      "byteOffset": 17000,
      "byteLength": 340,
      "byteStride": 20,
      "target": 34962,
      "extensions": {
        "KHR_meshopt_compression": {
          "buffer": 0,
          "byteOffset": 7950,
          "byteLength": 159,
          "byteStride": 20,
          "count": 17,
          "mode": "ATTRIBUTES",
          "filter": "NONE"
        }
      }
    },
    {
      "buffer": 1,
      "byteOffset": 17340,
      "byteLength": 340,
      "byteStride": 20,
      "target": 34962,
      "extensions": {
        "KHR_meshopt_compression": {
          "buffer": 0,
          "byteOffset": 8109,
          "byteLength": 159,
          "byteStride": 20,
          "count": 17,
          "mode": "ATTRIBUTES",
          "filter": "NONE"
        }
      }
    },
    {
      "buffer": 1,
      "byteOffset": 17680,
      "byteLength": 340,
      "byteStride": 20,
      "target": 34962,
      "extensions": {
        "KHR_meshopt_compression": {
          "buffer": 0,
          "byteOffset": 8268,
          "byteLength": 159,
          "byteStride": 20,
          "count": 17,
          "mode": "ATTRIBUTES",
          "filter": "NONE"
        }
      }
    },
    {
      "buffer": 1,
      "byteOffset": 18020,
      "byteLength": 340,
      "byteStride": 20,
      "target": 34962,
      "extensions": {
        "KHR_meshopt_compression": {
          "buffer": 0,
          "byteOffset": 8427,
          "byteLength": 159,
          "byteStride": 20,
          "count": 17,
          "mode": "ATTRIBUTES",
          "filter": "NONE"
        }
      }
    },
    {
      "buffer": 1,
      "byteOffset": 18360,
      "byteLength": 340,
      "byteStride": 20,
      "target": 34962,
      "extensions": {
        "KHR_meshopt_compression": {
          "buffer": 0,
          "byteOffset": 8586,
          "byteLength": 159,
          "byteStride": 20,
          "count": 17,
          "mode": "ATTRIBUTES",
          "filter": "NONE"
        }
      }
    },
    {
      "buffer": 1,
      "byteOffset": 18700,
      "byteLength": 340,
      "byteStride": 20,
      "target": 34962,
      "extensions": {
        "KHR_meshopt_compression": {
          "buffer": 0,
          "byteOffset": 8745,
          "byteLength": 159,
          "byteStride": 20,
          "count": 17,
          "mode": "ATTRIBUTES",
          "filter": "NONE"
        }
      }
    },
    {
      "buffer": 1,
      "byteOffset": 19040,
      "byteLength": 340,
      "byteStride": 20,
      "target": 34962,
      "extensions": {
        "KHR_meshopt_compression": {
          "buffer": 0,
          "byteOffset": 8904,
          "byteLength": 159,
          "byteStride": 20,
          "count": 17,
          "mode": "ATTRIBUTES",
          "filter": "NONE"
        }
      }
    },
    {
      "buffer": 1,
      "byteOffset": 19380,
      "byteLength": 340,
      "byteStride": 20,
      "target": 34962,
      "extensions": {
        "KHR_meshopt_compression": {
          "buffer": 0,
          "byteOffset": 9063,
          "byteLength": 159,
          "byteStride": 20,
          "count": 17,
          "mode": "ATTRIBUTES",
          "filter": "NONE"
        }
      }
    },
    {
      "buffer": 1,
      "byteOffset": 19720,
      "byteLength": 340,
      "byteStride": 20,
      "target": 34962,
      "extensions": {
        "KHR_meshopt_compression": {
          "buffer": 0,
          "byteOffset": 9222,
          "byteLength": 159,
          "byteStride": 20,
          "count": 17,
          "mode": "ATTRIBUTES",
          "filter": "NONE"
        }
      }
    },
    {
      "buffer": 1,
      "byteOffset": 20060,
      "byteLength": 340,
      "byteStride": 20,
      "target": 34962,
      "extensions": {
        "KHR_meshopt_compression": {
          "buffer": 0,
          "byteOffset": 9381,
          "byteLength": 159,
          "byteStride": 20,
          "count": 17,
          "mode": "ATTRIBUTES",
          "filter": "NONE"
        }
      }
    },
    {
      "buffer": 0,
      "byteOffset": 9540,
      "byteLength": 6,
      "target": 34963
    }
  ],
  "accessors": [
    {
      "bufferView": 0,
      "byteOffset": 0,
      "componentType": 5126,
      "count": 17,
      "type": "VEC3",
      "min": [
        0,
        0,
        0
      ],
      "max": [
        7,
        2,
        0
      ]
    },
    {
      "bufferView": 1,
      "byteOffset": 0,
      "componentType": 5126,
      "count": 17,
      "type": "VEC3",
      "min": [
        0,
        0,
        0
      ],
      "max": [
        7,
        2,
        0
      ]
    },
    {
      "bufferView": 2,
      "byteOffset": 0,
      "componentType": 5126,
      "count": 17,
      "type": "VEC3",
      "min": [
        0,
        0,
        0
      ],
      "max": [
        7,
        2,
        0
      ]
    },
    {
      "bufferView": 3,
      "byteOffset": 0,
      "componentType": 5126,
      "count": 17,
      "type": "VEC3",
      "min": [
        0,
        0,
        0
      ],
      "max": [
        7,
        2,
        0
      ]
    },
    {
      "bufferView": 4,
      "byteOffset": 0,
      "componentType": 5126,
      "count": 17,
      "type": "VEC3",
      "min": [
        0,
        0,
        0
      ],
      "max": [
        7,
        2,
        0
      ]
    },
    {
      "bufferView": 5,
      "byteOffset": 0,
      "componentType": 5126,
      "count": 17,
      "type": "VEC3",
      "min": [
        0,
        0,
        0
      ],
      "max": [
        7,
        2,
        0
      ]
    },
    {
      "bufferView": 6,
      "byteOffset": 0,
      "componentType": 5126,
      "count": 17,
      "type": "VEC3",
      "min": [
        0,
        0,
        0
      ],
      "max": [
        7,
        2,
        0
      ]
    },
    {
      "bufferView": 7,
      "byteOffset": 0,
      "componentType": 5126,
      "count": 17,
      "type": "VEC3",
      "min": [
        0,
        0,
        0
      ],
      "max": [
        7,
        2,
        0
      ]
    },
    {
      "bufferView": 8,
      "byteOffset": 0,
      "componentType": 5126,
      "count": 17,
      "type": "VEC3",
      "min": [
        0,
        0,
        0
      ],
      "max": [
        7,
        2,
        0
      ]
    },
    {
      "bufferView": 9,
      "byteOffset": 0,
      "componentType": 5126,
      "count": 17,
      "type": "VEC3",
      "min": [
        0,
        0,
        0
      ],
      "max": [
        7,
        2,
        0
      ]
    },
    {
      "bufferView": 10,
      "byteOffset": 0,
      "componentType": 5126,
      "count": 17,
      "type": "VEC3",
      "min": [
        0,
        0,
        0
      ],
      "max": [
        7,
        2,
        0
      ]
    },
    {
      "bufferView": 11,
      "byteOffset": 0,
      "componentType": 5126,
      "count": 17,
      "type": "VEC3",
      "min": [
        0,
        0,
        0
      ],
      "max": [
        7,
        2,
        0
      ]
    },
    {
      "bufferView": 12,
      "byteOffset": 0,
      "componentType": 5126,
      "count": 17,
      "type": "VEC3",
      "min": [
        0,
        0,
        0
      ],
      "max": [
        7,
        2,
        0
      ]
    },
    {
      "bufferView": 13,
      "byteOffset": 0,
      "componentType": 5126,
      "count": 17,
      "type": "VEC3",
      "min": [
        0,
        0,
        0
      ],
      "max": [
        7,
        2,
        0
      ]
    },
    {
      "bufferView": 14,
      "byteOffset": 0,
      "componentType": 5126,
      "count": 17,
      "type": "VEC3",
      "min": [
        0,
        0,
        0
      ],
      "max": [
        7,
        2,
        0
      ]
    },
    {
      "bufferView": 15,
      "byteOffset": 0,
      "componentType": 5126,
      "count": 17,
      "type": "VEC3",
      "min": [
        0,
        0,
        0
      ],
      "max": [
        7,
        2,
        0
      ]
    },
    {
      "bufferView": 16,
      "byteOffset": 0,
      "componentType": 5126,
      "count": 17,
      "type": "VEC3",
      "min": [
        0,
        0,
        0
      ],
      "max": [
        7,
        2,
        0
      ]
    },
    {
      "bufferView": 17,
      "byteOffset": 0,
      "componentType": 5126,
      "count": 17,
      "type": "VEC3",
      "min": [
        0,
        0,
        0
      ],
      "max": [
        7,
        2,
        0
      ]
    },
    {
      "bufferView": 18,
      "byteOffset": 0,
      "componentType": 5126,
      "count": 17,
      "type": "VEC3",
      "min": [
        0,
        0,
        0
      ],
      "max": [
        7,
        2,
        0
      ]
    },
    {
      "bufferView": 19,
      "byteOffset": 0,
      "componentType": 5126,
      "count": 17,
      "type": "VEC3",
      "min": [
        0,
        0,
        0
      ],
      "max": [
        7,
        2,
        0
      ]
    },
    {
      "bufferView": 20,
      "byteOffset": 0,
      "componentType": 5126,
      "count": 17,
      "type": "VEC3",
      "min": [
        0,
        0,
        0
      ],
      "max": [
        7,
        2,
        0
      ]
    },
    {
      "bufferView": 21,
      "byteOffset": 0,
      "componentType": 5126,
      "count": 17,
      "type": "VEC3",
      "min": [
        0,
        0,
        0
      ],
      "max": [
        7,
        2,
        0
      ]
    },
    {
      "bufferView": 22,
      "byteOffset": 0,
      "componentType": 5126,
      "count": 17,
      "type": "VEC3",
      "min": [
        0,
        0,
        0
      ],
      "max": [
        7,
        2,
        0
      ]
    },
    {
      "bufferView": 23,
      "byteOffset": 0,
      "componentType": 5126,
      "count": 17,
      "type": "VEC3",
      "min": [
        0,
        0,
        0
      ],
      "max": [
        7,
        2,
        0
      ]
    },
    {
      "bufferView": 24,
      "byteOffset": 0,
      "componentType": 5126,
      "count": 17,
      "type": "VEC3",
      "min": [
        0,
        0,
        0
      ],
      "max": [
        7,
        2,
        0
      ]
    },
    {
      "bufferView": 25,
      "byteOffset": 0,
      "componentType": 5126,
      "count": 17,
      "type": "VEC3",
      "min": [
        0,
        0,
        0
      ],
      "max": [
        7,
        2,
        0
      ]
    },
    {
      "bufferView": 26,
      "byteOffset": 0,
      "componentType": 5126,
      "count": 17,
      "type": "VEC3",
      "min": [
        0,
        0,
        0
      ],
      "max": [
        7,
        2,
        0
      ]
    },
    {
      "bufferView": 27,
      "byteOffset": 0,
      "componentType": 5126,
      "count": 17,
      "type": "VEC3",
      "min": [
        0,
        0,
        0
      ],
      "max": [
        7,
        2,
        0
      ]
    },
    {
      "bufferView": 28,
      "byteOffset": 0,
      "componentType": 5126,
      "count": 17,
      "type": "VEC3",
      "min": [
        0,
        0,
        0
      ],
      "max": [
        7,
        2,
        0
      ]
    },
    {
      "bufferView": 29,
      "byteOffset": 0,
      "componentType": 5126,
      "count": 17,
      "type": "VEC3",
      "min": [
        0,
        0,
        0
      ],
      "max": [
        7,
        2,
        0
      ]
    },
    {
      "bufferView": 30,
      "byteOffset": 0,
      "componentType": 5126,
      "count": 17,
      "type": "VEC3",
      "min": [
        0,
        0,
        0
      ],
      "max": [
        7,
        2,
        0
      ]
    },
    {
      "bufferView": 31,
      "byteOffset": 0,
      "componentType": 5126,
      "count": 17,
      "type": "VEC3",
      "min": [
        0,
        0,
        0
      ],
      "max": [
        7,
        2,
        0
      ]
    },
    {
      "bufferView": 32,
      "byteOffset": 0,
      "componentType": 5126,
      "count": 17,
      "type": "VEC3",
      "min": [
        0,
        0,
        0
      ],
      "max": [
        7,
        2,
        0
      ]
    },
    {
      "bufferView": 33,
      "byteOffset": 0,
      "componentType": 5126,
      "count": 17,
      "type": "VEC3",
      "min": [
        0,
        0,
        0
      ],
      "max": [
        7,
        2,
        0
      ]
    },
    {
      "bufferView": 34,
      "byteOffset": 0,
      "componentType": 5126,
      "count": 17,
      "type": "VEC3",
      "min": [
        0,
        0,
        0
      ],
      "max": [
        7,
        2,
        0
      ]
    },
    {
      "bufferView": 35,
      "byteOffset": 0,
      "componentType": 5126,
      "count": 17,
      "type": "VEC3",
      "min": [
        0,
        0,
        0
      ],
      "max": [
        7,
        2,
        0
      ]
    },
    {
      "bufferView": 36,
      "byteOffset": 0,
      "componentType": 5126,
      "count": 17,
      "type": "VEC3",
      "min": [
        0,
        0,
        0
      ],
      "max": [
        7,
        2,
        0
      ]
    },
    {
      "bufferView": 37,
      "byteOffset": 0,
      "componentType": 5126,
      "count": 17,
      "type": "VEC3",
      "min": [
        0,
        0,
        0
      ],
      "max": [
        7,
        2,
        0
      ]
    },
    {
      "bufferView": 38,
      "byteOffset": 0,
      "componentType": 5126,
      "count": 17,
      "type": "VEC3",
      "min": [
        0,
        0,
        0
      ],
      "max": [
        7,
        2,
        0
      ]
    },
    {
      "bufferView": 39,
      "byteOffset": 0,
      "componentType": 5126,
      "count": 17,
      "type": "VEC3",
      "min": [
        0,
        0,
        0
      ],
      "max": [
        7,
        2,
        0
      ]
    },
    {
      "bufferView": 40,
      "byteOffset": 0,
      "componentType": 5126,
      "count": 17,
      "type": "VEC3",
      "min": [
        0,
        0,
        0
      ],
      "max": [
        7,
        2,
        0
      ]
    },
    {
      "bufferView": 41,
      "byteOffset": 0,
      "componentType": 5126,
      "count": 17,
      "type": "VEC3",
      "min": [
        0,
        0,
        0
      ],
      "max": [
        7,
        2,
        0
      ]
    },
    {
      "bufferView": 42,
      "byteOffset": 0,
      "componentType": 5126,
      "count": 17,
      "type": "VEC3",
      "min": [
        0,
        0,
        0
      ],
      "max": [
        7,
        2,
        0
      ]
    },
    {
      "bufferView": 43,
      "byteOffset": 0,
      "componentType": 5126,
      "count": 17,
      "type": "VEC3",
      "min": [
        0,
        0,
        0
      ],
      "max": [
        7,
        2,
        0
      ]
    },
    {
      "bufferView": 44,
      "byteOffset": 0,
      "componentType": 5126,
      "count": 17,
      "type": "VEC3",
      "min": [
        0,
        0,
        0
      ],
      "max": [
        7,
        2,
        0
      ]
    },
    {
      "bufferView": 45,
      "byteOffset": 0,
      "componentType": 5126,
      "count": 17,
      "type": "VEC3",
      "min": [
        0,
        0,
        0
      ],
      "max": [
        7,
        2,
        0
      ]
    },
    {
      "bufferView": 46,
      "byteOffset": 0,
      "componentType": 5126,
      "count": 17,
      "type": "VEC3",
      "min": [
        0,
        0,
        0
      ],
      "max": [
        7,
        2,
        0
      ]
    },
    {
      "bufferView": 47,
      "byteOffset": 0,
      "componentType": 5126,
      "count": 17,
      "type": "VEC3",
      "min": [
        0,
        0,
        0
      ],
      "max": [
        7,
        2,
        0
      ]
    },
    {
      "bufferView": 48,
      "byteOffset": 0,
      "componentType": 5126,
      "count": 17,
      "type": "VEC3",
      "min": [
        0,
        0,
        0
      ],
      "max": [
        7,
        2,
        0
      ]
    },
    {
      "bufferView": 49,
      "byteOffset": 0,
      "componentType": 5126,
      "count": 17,
      "type": "VEC3",
      "min": [
        0,
        0,
        0
      ],
      "max": [
        7,
        2,
        0
      ]
    },
    {
      "bufferView": 50,
      "byteOffset": 0,
      "componentType": 5126,
      "count": 17,
      "type": "VEC3",
      "min": [
        0,
        0,
        0
      ],
      "max": [
        7,
        2,
        0
      ]
    },
    {
      "bufferView": 51,
      "byteOffset": 0,
      "componentType": 5126,
      "count": 17,
      "type": "VEC3",
      "min": [
        0,
        0,
        0
      ],
      "max": [
        7,
        2,
        0
      ]
    },
    {
      "bufferView": 52,
      "byteOffset": 0,
      "componentType": 5126,
      "count": 17,
      "type": "VEC3",
      "min": [
        0,
        0,
        0
      ],
      "max": [
        7,
        2,
        0
      ]
    },
    {
      "bufferView": 53,
      "byteOffset": 0,
      "componentType": 5126,
      "count": 17,
      "type": "VEC3",
      "min": [
        0,
        0,
        0
      ],
      "max": [
        7,
        2,
        0
      ]
    },
    {
      "bufferView": 54,
      "byteOffset": 0,
      "componentType": 5126,
      "count": 17,
      "type": "VEC3",
      "min": [
        0,
        0,
        0
      ],
      "max": [
        7,
        2,
        0
      ]
    },
    {
      "bufferView": 55,
      "byteOffset": 0,
      "componentType": 5126,
      "count": 17,
      "type": "VEC3",
      "min": [
        0,
        0,
        0
      ],
      "max": [
        7,
        2,
        0
      ]
    },
    {
      "bufferView": 56,
      "byteOffset": 0,
      "componentType": 5126,
      "count": 17,
      "type": "VEC3",
      "min": [
        0,
        0,
        0
      ],
      "max": [
        7,
        2,
        0
      ]
    },
    {
      "bufferView": 57,
      "byteOffset": 0,
      "componentType": 5126,
      "count": 17,
      "type": "VEC3",
      "min": [
        0,
        0,
        0
      ],
      "max": [
        7,
        2,
        0
      ]
    },
    {
      "bufferView": 58,
      "byteOffset": 0,
      "componentType": 5126,
      "count": 17,
      "type": "VEC3",
      "min": [
        0,
        0,
        0
      ],
      "max": [
        7,
        2,
        0
      ]
    },
    {
      "bufferView": 59,
      "byteOffset": 0,
      "componentType": 5126,
      "count": 17,
      "type": "VEC3",
      "min": [
        0,
        0,
        0
      ],
      "max": [
        7,
        2,
        0
      ]
    },
    {
      "bufferView": 60,
      "byteOffset": 0,
      "componentType": 5123,
      "count": 3,
      "type": "SCALAR",
      "min": [
        0
      ],
      "max": [
        2
      ]
    }
  ],
  "materials": [
    {
      "pbrMetallicRoughness": {
        "metallicFactor": 0,
        "roughnessFactor": 1
      }
    }
  ],
  "meshes": [
    {
      "primitives": [
        {
          "attributes": {
            "POSITION": 0
          },
          "indices": 60,
          "material": 0
        },
        {
          "attributes": {
            "POSITION": 1
          },
          "indices": 60,
          "material": 0
        },
        {
          "attributes": {
            "POSITION": 2
          },
          "indices": 60,
          "material": 0
        },
        {
          "attributes": {
            "POSITION": 3
          },
          "indices": 60,
          "material": 0
        },
        {
          "attributes": {
            "POSITION": 4
          },
          "indices": 60,
          "material": 0
        },
        {
          "attributes": {
            "POSITION": 5
          },
          "indices": 60,
          "material": 0
        },
        {
          "attributes": {
            "POSITION": 6
          },
          "indices": 60,
          "material": 0
        },
        {
          "attributes": {
            "POSITION": 7
          },
          "indices": 60,
          "material": 0
        },
        {
          "attributes": {
            "POSITION": 8
          },
          "indices": 60,
          "material": 0
        },
        {
          "attributes": {
            "POSITION": 9
          },
          "indices": 60,
          "material": 0
        },
        {
          "attributes": {
            "POSITION": 10
          },
          "indices": 60,
          "material": 0
        },
        {
          "attributes": {
            "POSITION": 11
          },
          "indices": 60,
          "material": 0
        },
        {
          "attributes": {
            "POSITION": 12
          },
          "indices": 60,
          "material": 0
        },
        {
          "attributes": {
            "POSITION": 13
          },
          "indices": 60,
          "material": 0
        },
        {
          "attributes": {
            "POSITION": 14
          },
          "indices": 60,
          "material": 0
        },
        {
          "attributes": {
            "POSITION": 15
          },
          "indices": 60,
          "material": 0
        },
        {
          "attributes": {
            "POSITION": 16
          },
          "indices": 60,
          "material": 0
        },
        {
          "attributes": {
            "POSITION": 17
          },
          "indices": 60,
          "material": 0
        },
        {
          "attributes": {
            "POSITION": 18
          },
          "indices": 60,
          "material": 0
        },
        {
          "attributes": {
            "POSITION": 19
          },
          "indices": 60,
          "material": 0
        },
        {
          "attributes": {
            "POSITION": 20
          },
          "indices": 60,
          "material": 0
        },
        {
          "attributes": {
            "POSITION": 21
          },
          "indices": 60,
          "material": 0
        },
        {
          "attributes": {
            "POSITION": 22
          },
          "indices": 60,
          "material": 0
        },
        {
          "attributes": {
            "POSITION": 23
          },
          "indices": 60,
          "material": 0
        },
        {
          "attributes": {
            "POSITION": 24
          },
          "indices": 60,
          "material": 0
        },
        {
          "attributes": {
            "POSITION": 25
          },
          "indices": 60,
          "material": 0
        },
        {
          "attributes": {
            "POSITION": 26
          },
          "indices": 60,
          "material": 0
        },
        {
          "attributes": {
            "POSITION": 27
          },
          "indices": 60,
          "material": 0
        },
        {
          "attributes": {
            "POSITION": 28
          },
          "indices": 60,
          "material": 0
        },
        {
          "attributes": {
            "POSITION": 29
          },
          "indices": 60,
          "material": 0
        },
        {
          "attributes": {
            "POSITION": 30
          },
          "indices": 60,
          "material": 0
        },
        {
          "attributes": {
            "POSITION": 31
          },
          "indices": 60,
          "material": 0
        },
        {
          "attributes": {
            "POSITION": 32
          },
          "indices": 60,
          "material": 0
        },
        {
          "attributes": {
            "POSITION": 33
          },
          "indices": 60,
          "material": 0
        },
        {
          "attributes": {
            "POSITION": 34
          },
          "indices": 60,
          "material": 0
        },
        {
          "attributes": {
            "POSITION": 35
          },
          "indices": 60,
          "material": 0
        },
        {
          "attributes": {
            "POSITION": 36
          },
          "indices": 60,
          "material": 0
        },
        {
          "attributes": {
            "POSITION": 37
          },
          "indices": 60,
          "material": 0
        },
        {
          "attributes": {
            "POSITION": 38
          },
          "indices": 60,
          "material": 0
        },
        {
          "attributes": {
            "POSITION": 39
          },
          "indices": 60,
          "material": 0
        },
        {
          "attributes": {
            "POSITION": 40
          },
          "indices": 60,
          "material": 0
        },
        {
          "attributes": {
            "POSITION": 41
          },
          "indices": 60,
          "material": 0
        },
        {
          "attributes": {
            "POSITION": 42
          },
          "indices": 60,
          "material": 0
        },
        {
          "attributes": {
            "POSITION": 43
          },
          "indices": 60,
          "material": 0
        },
        {
          "attributes": {
            "POSITION": 44
          },
          "indices": 60,
          "material": 0
        },
        {
          "attributes": {
            "POSITION": 45
          },
          "indices": 60,
          "material": 0
        },
        {
          "attributes": {
            "POSITION": 46
          },
          "indices": 60,
          "material": 0
        },
        {
          "attributes": {
            "POSITION": 47
          },
          "indices": 60,
          "material": 0
        },
        {
          "attributes": {
            "POSITION": 48
          },
          "indices": 60,
          "material": 0
        },
        {
          "attributes": {
            "POSITION": 49
          },
          "indices": 60,
          "material": 0
        },
        {
          "attributes": {
            "POSITION": 50
          },
          "indices": 60,
          "material": 0
        },
        {
          "attributes": {
            "POSITION": 51
          },
          "indices": 60,
          "material": 0
        },
        {
          "attributes": {
            "POSITION": 52
          },
          "indices": 60,
          "material": 0
        },
        {
          "attributes": {
            "POSITION": 53
          },
          "indices": 60,
          "material": 0
        },
        {
          "attributes": {
            "POSITION": 54
          },
          "indices": 60,
          "material": 0
        },
        {
          "attributes": {
            "POSITION": 55
          },
          "indices": 60,
          "material": 0
        },
        {
          "attributes": {
            "POSITION": 56
          },
          "indices": 60,
          "material": 0
        },
        {
          "attributes": {
            "POSITION": 57
          },
          "indices": 60,
          "material": 0
        },
        {
          "attributes": {
            "POSITION": 58
          },
          "indices": 60,
          "material": 0
        },
        {
          "attributes": {
            "POSITION": 59
          },
          "indices": 60,
          "material": 0
        },
        {
          "attributes": {
            "POSITION": 0
          },
          "indices": 60,
          "material": 0
        },
        {
          "attributes": {
            "POSITION": 1
          },
          "indices": 60,
          "material": 0
        },
        {
          "attributes": {
            "POSITION": 2
          },
          "indices": 60,
          "material": 0
        },
        {
          "attributes": {
            "POSITION": 3
          },
          "indices": 60,
          "material": 0
        },
        {
          "attributes": {
            "POSITION": 4
          },
          "indices": 60,
          "material": 0
        },
        {
          "attributes": {
            "POSITION": 5
          },
          "indices": 60,
          "material": 0
        },
        {
          "attributes": {
            "POSITION": 6
          },
          "indices": 60,
          "material": 0
        },
        {
          "attributes": {
            "POSITION": 7
          },
          "indices": 60,
          "material": 0
        },
        {
          "attributes": {
            "POSITION": 8
          },
          "indices": 60,
          "material": 0
        },
        {
          "attributes": {
            "POSITION": 9
          },
          "indices": 60,
          "material": 0
        },
        {
          "attributes": {
            "POSITION": 10
          },
          "indices": 60,
          "material": 0
        },
        {
          "attributes": {
            "POSITION": 11
          },
          "indices": 60,
          "material": 0
        },
        {
          "attributes": {
            "POSITION": 12
          },
          "indices": 60,
          "material": 0
        },
        {
          "attributes": {
            "POSITION": 13
          },
          "indices": 60,
          "material": 0
        },
        {
          "attributes": {
            "POSITION": 14
          },
          "indices": 60,
          "material": 0
        },
        {
          "attributes": {
            "POSITION": 15
          },
          "indices": 60,
          "material": 0
        },
        {
          "attributes": {
            "POSITION": 16
          },
          "indices": 60,
          "material": 0
        },
        {
          "attributes": {
            "POSITION": 17
          },
          "indices": 60,
          "material": 0
        },
        {
          "attributes": {
            "POSITION": 18
          },
          "indices": 60,
          "material": 0
        },
        {
          "attributes": {
            "POSITION": 19
          },
          "indices": 60,
          "material": 0
        },
        {
          "attributes": {
            "POSITION": 20
          },
          "indices": 60,
          "material": 0
        },
        {
          "attributes": {
            "POSITION": 21
          },
          "indices": 60,
          "material": 0
        },
        {
          "attributes": {
            "POSITION": 22
          },
          "indices": 60,
          "material": 0
        },
        {
          "attributes": {
            "POSITION": 23
          },
          "indices": 60,
          "material": 0
        },
        {
          "attributes": {
            "POSITION": 24
          },
          "indices": 60,
          "material": 0
        },
        {
          "attributes": {
            "POSITION": 25
          },
          "indices": 60,
          "material": 0
        },
        {
          "attributes": {
            "POSITION": 26
          },
          "indices": 60,
          "material": 0
        },
        {
          "attributes": {
            "POSITION": 27
          },
          "indices": 60,
          "material": 0
        },
        {
          "attributes": {
            "POSITION": 28
          },
          "indices": 60,
          "material": 0
        },
        {
          "attributes": {
            "POSITION": 29
          },
          "indices": 60,
          "material": 0
        },
        {
          "attributes": {
            "POSITION": 30
          },
          "indices": 60,
          "material": 0
        },
        {
          "attributes": {
            "POSITION": 31
          },
          "indices": 60,
          "material": 0
        },
        {
          "attributes": {
            "POSITION": 32
          },
          "indices": 60,
          "material": 0
        },
        {
          "attributes": {
            "POSITION": 33
          },
          "indices": 60,
          "material": 0
        },
        {
          "attributes": {
            "POSITION": 34
          },
          "indices": 60,
          "material": 0
        },
        {
          "attributes": {
            "POSITION": 35
          },
          "indices": 60,
          "material": 0
        },
        {
          "attributes": {
            "POSITION": 36
          },
          "indices": 60,
          "material": 0
        },
        {
          "attributes": {
            "POSITION": 37
          },
          "indices": 60,
          "material": 0
        },
        {
          "attributes": {
            "POSITION": 38
          },
          "indices": 60,
          "material": 0
        },
        {
          "attributes": {
            "POSITION": 39
          },
          "indices": 60,
          "material": 0
        },
        {
          "attributes": {
            "POSITION": 40
          },
          "indices": 60,
          "material": 0
        },
        {
          "attributes": {
            "POSITION": 41
          },
          "indices": 60,
          "material": 0
        },
        {
          "attributes": {
            "POSITION": 42
          },
          "indices": 60,
          "material": 0
        },
        {
          "attributes": {
            "POSITION": 43
          },
          "indices": 60,
          "material": 0
        },
        {
          "attributes": {
            "POSITION": 44
          },
          "indices": 60,
          "material": 0
        },
        {
          "attributes": {
            "POSITION": 45
          },
          "indices": 60,
          "material": 0
        },
        {
          "attributes": {
            "POSITION": 46
          },
          "indices": 60,
          "material": 0
        },
        {
          "attributes": {
            "POSITION": 47
          },
          "indices": 60,
          "material": 0
        },
        {
          "attributes": {
            "POSITION": 48
          },
          "indices": 60,
          "material": 0
        },
        {
          "attributes": {
            "POSITION": 49
          },
          "indices": 60,
          "material": 0
        },
        {
          "attributes": {
            "POSITION": 50
          },
          "indices": 60,
          "material": 0
        },
        {
          "attributes": {
            "POSITION": 51
          },
          "indices": 60,
          "material": 0
        },
        {
          "attributes": {
            "POSITION": 52
          },
          "indices": 60,
          "material": 0
        },
        {
          "attributes": {
            "POSITION": 53
          },
          "indices": 60,
          "material": 0
        },
        {
          "attributes": {
            "POSITION": 54
          },
          "indices": 60,
          "material": 0
        },
        {
          "attributes": {
            "POSITION": 55
          },
          "indices": 60,
          "material": 0
        },
        {
          "attributes": {
            "POSITION": 56
          },
          "indices": 60,
          "material": 0
        },
        {
          "attributes": {
            "POSITION": 57
          },
          "indices": 60,
          "material": 0
        },
        {
          "attributes": {
            "POSITION": 58
          },
          "indices": 60,
          "material": 0
        },
        {
          "attributes": {
            "POSITION": 59
          },
          "indices": 60,
          "material": 0
        },
        {
          "attributes": {
            "POSITION": 0
          },
          "indices": 60,
          "material": 0
        },
        {
          "attributes": {
            "POSITION": 1
          },
          "indices": 60,
          "material": 0
        },
        {
          "attributes": {
            "POSITION": 2
          },
          "indices": 60,
          "material": 0
        },
        {
          "attributes": {
            "POSITION": 3
          },
          "indices": 60,
          "material": 0
        },
        {
          "attributes": {
            "POSITION": 4
          },
          "indices": 60,
          "material": 0
        },
        {
          "attributes": {
            "POSITION": 5
          },
          "indices": 60,
          "material": 0
        },
        {
          "attributes": {
            "POSITION": 6
          },
          "indices": 60,
          "material": 0
        },
        {
          "attributes": {
            "POSITION": 7
          },
          "indices": 60,
          "material": 0
        },
        {
          "attributes": {
            "POSITION": 8
          },
          "indices": 60,
          "material": 0
        },
        {
          "attributes": {
            "POSITION": 9
          },
          "indices": 60,
          "material": 0
        },
        {
          "attributes": {
            "POSITION": 10
          },
          "indices": 60,
          "material": 0
        },
        {
          "attributes": {
            "POSITION": 11
          },
          "indices": 60,
          "material": 0
        },
        {
          "attributes": {
            "POSITION": 12
          },
          "indices": 60,
          "material": 0
        },
        {
          "attributes": {
            "POSITION": 13
          },
          "indices": 60,
          "material": 0
        },
        {
          "attributes": {
            "POSITION": 14
          },
          "indices": 60,
          "material": 0
        },
        {
          "attributes": {
            "POSITION": 15
          },
          "indices": 60,
          "material": 0
        },
        {
          "attributes": {
            "POSITION": 16
          },
          "indices": 60,
          "material": 0
        },
        {
          "attributes": {
            "POSITION": 17
          },
          "indices": 60,
          "material": 0
        },
        {
          "attributes": {
            "POSITION": 18
          },
          "indices": 60,
          "material": 0
        },
        {
          "attributes": {
            "POSITION": 19
          },
          "indices": 60,
          "material": 0
        },
        {
          "attributes": {
            "POSITION": 20
          },
          "indices": 60,
          "material": 0
        },
        {
          "attributes": {
            "POSITION": 21
          },
          "indices": 60,
          "material": 0
        },
        {
          "attributes": {
            "POSITION": 22
          },
          "indices": 60,
          "material": 0
        },
        {
          "attributes": {
            "POSITION": 23
          },
          "indices": 60,
          "material": 0
        },
        {
          "attributes": {
            "POSITION": 24
          },
          "indices": 60,
          "material": 0
        },
        {
          "attributes": {
            "POSITION": 25
          },
          "indices": 60,
          "material": 0
        },
        {
          "attributes": {
            "POSITION": 26
          },
          "indices": 60,
          "material": 0
        },
        {
          "attributes": {
            "POSITION": 27
          },
          "indices": 60,
          "material": 0
        },
        {
          "attributes": {
            "POSITION": 28
          },
          "indices": 60,
          "material": 0
        },
        {
          "attributes": {
            "POSITION": 29
          },
          "indices": 60,
          "material": 0
        },
        {
          "attributes": {
            "POSITION": 30
          },
          "indices": 60,
          "material": 0
        },
        {
          "attributes": {
            "POSITION": 31
          },
          "indices": 60,
          "material": 0
        },
        {
          "attributes": {
            "POSITION": 32
          },
          "indices": 60,
          "material": 0
        },
        {
          "attributes": {
            "POSITION": 33
          },
          "indices": 60,
          "material": 0
        },
        {
          "attributes": {
            "POSITION": 34
          },
          "indices": 60,
          "material": 0
        },
        {
          "attributes": {
            "POSITION": 35
          },
          "indices": 60,
          "material": 0
        },
        {
          "attributes": {
            "POSITION": 36
          },
          "indices": 60,
          "material": 0
        },
        {
          "attributes": {
            "POSITION": 37
          },
          "indices": 60,
          "material": 0
        },
        {
          "attributes": {
            "POSITION": 38
          },
          "indices": 60,
          "material": 0
        },
        {
          "attributes": {
            "POSITION": 39
          },
          "indices": 60,
          "material": 0
        },
        {
          "attributes": {
            "POSITION": 40
          },
          "indices": 60,
          "material": 0
        },
        {
          "attributes": {
            "POSITION": 41
          },
          "indices": 60,
          "material": 0
        },
        {
          "attributes": {
            "POSITION": 42
          },
          "indices": 60,
          "material": 0
        },
        {
          "attributes": {
            "POSITION": 43
          },
          "indices": 60,
          "material": 0
        },
        {
          "attributes": {
            "POSITION": 44
          },
          "indices": 60,
          "material": 0
        },
        {
          "attributes": {
            "POSITION": 45
          },
          "indices": 60,
          "material": 0
        },
        {
          "attributes": {
            "POSITION": 46
          },
          "indices": 60,
          "material": 0
        },
        {
          "attributes": {
            "POSITION": 47
          },
          "indices": 60,
          "material": 0
        },
        {
          "attributes": {
            "POSITION": 48
          },
          "indices": 60,
          "material": 0
        },
        {
          "attributes": {
            "POSITION": 49
          },
          "indices": 60,
          "material": 0
        },
        {
          "attributes": {
            "POSITION": 50
          },
          "indices": 60,
          "material": 0
        },
        {
          "attributes": {
            "POSITION": 51
          },
          "indices": 60,
          "material": 0
        },
        {
          "attributes": {
            "POSITION": 52
          },
          "indices": 60,
          "material": 0
        },
        {
          "attributes": {
            "POSITION": 53
          },
          "indices": 60,
          "material": 0
        },
        {
          "attributes": {
            "POSITION": 54
          },
          "indices": 60,
          "material": 0
        },
        {
          "attributes": {
            "POSITION": 55
          },
          "indices": 60,
          "material": 0
        },
        {
          "attributes": {
            "POSITION": 56
          },
          "indices": 60,
          "material": 0
        },
        {
          "attributes": {
            "POSITION": 57
          },
          "indices": 60,
          "material": 0
        },
        {
          "attributes": {
            "POSITION": 58
          },
          "indices": 60,
          "material": 0
        },
        {
          "attributes": {
            "POSITION": 59
          },
          "indices": 60,
          "material": 0
        },
        {
          "attributes": {
            "POSITION": 0
          },
          "indices": 60,
          "material": 0
        },
        {
          "attributes": {
            "POSITION": 1
          },
          "indices": 60,
          "material": 0
        },
        {
          "attributes": {
            "POSITION": 2
          },
          "indices": 60,
          "material": 0
        },
        {
          "attributes": {
            "POSITION": 3
          },
          "indices": 60,
          "material": 0
        },
        {
          "attributes": {
            "POSITION": 4
          },
          "indices": 60,
          "material": 0
        },
        {
          "attributes": {
            "POSITION": 5
          },
          "indices": 60,
          "material": 0
        },
        {
          "attributes": {
            "POSITION": 6
          },
          "indices": 60,
          "material": 0
        },
        {
          "attributes": {
            "POSITION": 7
          },
          "indices": 60,
          "material": 0
        },
        {
          "attributes": {
            "POSITION": 8
          },
          "indices": 60,
          "material": 0
        },
        {
          "attributes": {
            "POSITION": 9
          },
          "indices": 60,
          "material": 0
        },
        {
          "attributes": {
            "POSITION": 10
          },
          "indices": 60,
          "material": 0
        },
        {
          "attributes": {
            "POSITION": 11
          },
          "indices": 60,
          "material": 0
        },
        {
          "attributes": {
            "POSITION": 12
          },
          "indices": 60,
          "material": 0
        },
        {
          "attributes": {
            "POSITION": 13
          },
          "indices": 60,
          "material": 0
        },
        {
          "attributes": {
            "POSITION": 14
          },
          "indices": 60,
          "material": 0
        },
        {
          "attributes": {
            "POSITION": 15
          },
          "indices": 60,
          "material": 0
        },
        {
          "attributes": {
            "POSITION": 16
          },
          "indices": 60,
          "material": 0
        },
        {
          "attributes": {
            "POSITION": 17
          },
          "indices": 60,
          "material": 0
        },
        {
          "attributes": {
            "POSITION": 18
          },
          "indices": 60,
          "material": 0
        },
        {
          "attributes": {
            "POSITION": 19
          },
          "indices": 60,
          "material": 0
        }
      ]
    }
  ],
  "nodes": [
    {
      "mesh": 0
    }
  ],
  "scenes": [
    {
      "nodes": [
        0
      ]
    }
  ],
  "scene": 0
}
