{
  "asset": {
    "version": "2.0"
  },
  "extensionsUsed": [
    "KHR_meshopt_compression"
  ],
  "extensionsRequired": [
    "KHR_meshopt_compression"
  ],
  "buffers": [
    {
      "uri": "meshopt-task-shape-1-view.bin",
      "byteLength": 9546
    },
    {
      "byteLength": 21168,
      "extensions": {
        "KHR_meshopt_compression": {
          "fallback": true
        }
      }
    }
  ],
  "bufferViews": [
    {
      "buffer": 1,
      "byteOffset": 0,
      "byteLength": 21168,
      "byteStride": 56,
      "target": 34962,
      "extensions": {
        "KHR_meshopt_compression": {
          "buffer": 0,
          "byteOffset": 0,
          "byteLength": 9540,
          "byteStride": 56,
          "count": 378,
          "mode": "ATTRIBUTES",
          "filter": "NONE"
        }
      }
    },
    {
      "buffer": 0,
      "byteOffset": 9540,
      "byteLength": 6,
      "target": 34963
    }
  ],
  "accessors": [
    {
      "bufferView": 0,
      "byteOffset": 0,
      "componentType": 5126,
      "count": 378,
      "type": "VEC3",
      "min": [
        0,
        0,
        0
      ],
      "max": [
        1,
        1,
        0
      ]
    },
    {
      "bufferView": 1,
      "byteOffset": 0,
      "componentType": 5123,
      "count": 3,
      "type": "SCALAR",
      "min": [
        0
      ],
      "max": [
        2
      ]
    }
  ],
  "materials": [
    {
      "pbrMetallicRoughness": {
        "metallicFactor": 0,
        "roughnessFactor": 1
      }
    }
  ],
  "meshes": [
    {
      "primitives": [
        {
          "attributes": {
            "POSITION": 0
          },
          "indices": 1,
          "material": 0
        },
        {
          "attributes": {
            "POSITION": 0
          },
          "indices": 1,
          "material": 0
        },
        {
          "attributes": {
            "POSITION": 0
          },
          "indices": 1,
          "material": 0
        },
        {
          "attributes": {
            "POSITION": 0
          },
          "indices": 1,
          "material": 0
        },
        {
          "attributes": {
            "POSITION": 0
          },
          "indices": 1,
          "material": 0
        },
        {
          "attributes": {
            "POSITION": 0
          },
          "indices": 1,
          "material": 0
        },
        {
          "attributes": {
            "POSITION": 0
          },
          "indices": 1,
          "material": 0
        },
        {
          "attributes": {
            "POSITION": 0
          },
          "indices": 1,
          "material": 0
        },
        {
          "attributes": {
            "POSITION": 0
          },
          "indices": 1,
          "material": 0
        },
        {
          "attributes": {
            "POSITION": 0
          },
          "indices": 1,
          "material": 0
        },
        {
          "attributes": {
            "POSITION": 0
          },
          "indices": 1,
          "material": 0
        },
        {
          "attributes": {
            "POSITION": 0
          },
          "indices": 1,
          "material": 0
        },
        {
          "attributes": {
            "POSITION": 0
          },
          "indices": 1,
          "material": 0
        },
        {
          "attributes": {
            "POSITION": 0
          },
          "indices": 1,
          "material": 0
        },
        {
          "attributes": {
            "POSITION": 0
          },
          "indices": 1,
          "material": 0
        },
        {
          "attributes": {
            "POSITION": 0
          },
          "indices": 1,
          "material": 0
        },
        {
          "attributes": {
            "POSITION": 0
          },
          "indices": 1,
          "material": 0
        },
        {
          "attributes": {
            "POSITION": 0
          },
          "indices": 1,
          "material": 0
        },
        {
          "attributes": {
            "POSITION": 0
          },
          "indices": 1,
          "material": 0
        },
        {
          "attributes": {
            "POSITION": 0
          },
          "indices": 1,
          "material": 0
        },
        {
          "attributes": {
            "POSITION": 0
          },
          "indices": 1,
          "material": 0
        },
        {
          "attributes": {
            "POSITION": 0
          },
          "indices": 1,
          "material": 0
        },
        {
          "attributes": {
            "POSITION": 0
          },
          "indices": 1,
          "material": 0
        },
        {
          "attributes": {
            "POSITION": 0
          },
          "indices": 1,
          "material": 0
        },
        {
          "attributes": {
            "POSITION": 0
          },
          "indices": 1,
          "material": 0
        },
        {
          "attributes": {
            "POSITION": 0
          },
          "indices": 1,
          "material": 0
        },
        {
          "attributes": {
            "POSITION": 0
          },
          "indices": 1,
          "material": 0
        },
        {
          "attributes": {
            "POSITION": 0
          },
          "indices": 1,
          "material": 0
        },
        {
          "attributes": {
            "POSITION": 0
          },
          "indices": 1,
          "material": 0
        },
        {
          "attributes": {
            "POSITION": 0
          },
          "indices": 1,
          "material": 0
        },
        {
          "attributes": {
            "POSITION": 0
          },
          "indices": 1,
          "material": 0
        },
        {
          "attributes": {
            "POSITION": 0
          },
          "indices": 1,
          "material": 0
        },
        {
          "attributes": {
            "POSITION": 0
          },
          "indices": 1,
          "material": 0
        },
        {
          "attributes": {
            "POSITION": 0
          },
          "indices": 1,
          "material": 0
        },
        {
          "attributes": {
            "POSITION": 0
          },
          "indices": 1,
          "material": 0
        },
        {
          "attributes": {
            "POSITION": 0
          },
          "indices": 1,
          "material": 0
        },
        {
          "attributes": {
            "POSITION": 0
          },
          "indices": 1,
          "material": 0
        },
        {
          "attributes": {
            "POSITION": 0
          },
          "indices": 1,
          "material": 0
        },
        {
          "attributes": {
            "POSITION": 0
          },
          "indices": 1,
          "material": 0
        },
        {
          "attributes": {
            "POSITION": 0
          },
          "indices": 1,
          "material": 0
        },
        {
          "attributes": {
            "POSITION": 0
          },
          "indices": 1,
          "material": 0
        },
        {
          "attributes": {
            "POSITION": 0
          },
          "indices": 1,
          "material": 0
        },
        {
          "attributes": {
            "POSITION": 0
          },
          "indices": 1,
          "material": 0
        },
        {
          "attributes": {
            "POSITION": 0
          },
          "indices": 1,
          "material": 0
        },
        {
          "attributes": {
            "POSITION": 0
          },
          "indices": 1,
          "material": 0
        },
        {
          "attributes": {
            "POSITION": 0
          },
          "indices": 1,
          "material": 0
        },
        {
          "attributes": {
            "POSITION": 0
          },
          "indices": 1,
          "material": 0
        },
        {
          "attributes": {
            "POSITION": 0
          },
          "indices": 1,
          "material": 0
        },
        {
          "attributes": {
            "POSITION": 0
          },
          "indices": 1,
          "material": 0
        },
        {
          "attributes": {
            "POSITION": 0
          },
          "indices": 1,
          "material": 0
        },
        {
          "attributes": {
            "POSITION": 0
          },
          "indices": 1,
          "material": 0
        },
        {
          "attributes": {
            "POSITION": 0
          },
          "indices": 1,
          "material": 0
        },
        {
          "attributes": {
            "POSITION": 0
          },
          "indices": 1,
          "material": 0
        },
        {
          "attributes": {
            "POSITION": 0
          },
          "indices": 1,
          "material": 0
        },
        {
          "attributes": {
            "POSITION": 0
          },
          "indices": 1,
          "material": 0
        },
        {
          "attributes": {
            "POSITION": 0
          },
          "indices": 1,
          "material": 0
        },
        {
          "attributes": {
            "POSITION": 0
          },
          "indices": 1,
          "material": 0
        },
        {
          "attributes": {
            "POSITION": 0
          },
          "indices": 1,
          "material": 0
        },
        {
          "attributes": {
            "POSITION": 0
          },
          "indices": 1,
          "material": 0
        },
        {
          "attributes": {
            "POSITION": 0
          },
          "indices": 1,
          "material": 0
        },
        {
          "attributes": {
            "POSITION": 0
          },
          "indices": 1,
          "material": 0
        },
        {
          "attributes": {
            "POSITION": 0
          },
          "indices": 1,
          "material": 0
        },
        {
          "attributes": {
            "POSITION": 0
          },
          "indices": 1,
          "material": 0
        },
        {
          "attributes": {
            "POSITION": 0
          },
          "indices": 1,
          "material": 0
        },
        {
          "attributes": {
            "POSITION": 0
          },
          "indices": 1,
          "material": 0
        },
        {
          "attributes": {
            "POSITION": 0
          },
          "indices": 1,
          "material": 0
        },
        {
          "attributes": {
            "POSITION": 0
          },
          "indices": 1,
          "material": 0
        },
        {
          "attributes": {
            "POSITION": 0
          },
          "indices": 1,
          "material": 0
        },
        {
          "attributes": {
            "POSITION": 0
          },
          "indices": 1,
          "material": 0
        },
        {
          "attributes": {
            "POSITION": 0
          },
          "indices": 1,
          "material": 0
        },
        {
          "attributes": {
            "POSITION": 0
          },
          "indices": 1,
          "material": 0
        },
        {
          "attributes": {
            "POSITION": 0
          },
          "indices": 1,
          "material": 0
        },
        {
          "attributes": {
            "POSITION": 0
          },
          "indices": 1,
          "material": 0
        },
        {
          "attributes": {
            "POSITION": 0
          },
          "indices": 1,
          "material": 0
        },
        {
          "attributes": {
            "POSITION": 0
          },
          "indices": 1,
          "material": 0
        },
        {
          "attributes": {
            "POSITION": 0
          },
          "indices": 1,
          "material": 0
        },
        {
          "attributes": {
            "POSITION": 0
          },
          "indices": 1,
          "material": 0
        },
        {
          "attributes": {
            "POSITION": 0
          },
          "indices": 1,
          "material": 0
        },
        {
          "attributes": {
            "POSITION": 0
          },
          "indices": 1,
          "material": 0
        },
        {
          "attributes": {
            "POSITION": 0
          },
          "indices": 1,
          "material": 0
        },
        {
          "attributes": {
            "POSITION": 0
          },
          "indices": 1,
          "material": 0
        },
        {
          "attributes": {
            "POSITION": 0
          },
          "indices": 1,
          "material": 0
        },
        {
          "attributes": {
            "POSITION": 0
          },
          "indices": 1,
          "material": 0
        },
        {
          "attributes": {
            "POSITION": 0
          },
          "indices": 1,
          "material": 0
        },
        {
          "attributes": {
            "POSITION": 0
          },
          "indices": 1,
          "material": 0
        },
        {
          "attributes": {
            "POSITION": 0
          },
          "indices": 1,
          "material": 0
        },
        {
          "attributes": {
            "POSITION": 0
          },
          "indices": 1,
          "material": 0
        },
        {
          "attributes": {
            "POSITION": 0
          },
          "indices": 1,
          "material": 0
        },
        {
          "attributes": {
            "POSITION": 0
          },
          "indices": 1,
          "material": 0
        },
        {
          "attributes": {
            "POSITION": 0
          },
          "indices": 1,
          "material": 0
        },
        {
          "attributes": {
            "POSITION": 0
          },
          "indices": 1,
          "material": 0
        },
        {
          "attributes": {
            "POSITION": 0
          },
          "indices": 1,
          "material": 0
        },
        {
          "attributes": {
            "POSITION": 0
          },
          "indices": 1,
          "material": 0
        },
        {
          "attributes": {
            "POSITION": 0
          },
          "indices": 1,
          "material": 0
        },
        {
          "attributes": {
            "POSITION": 0
          },
          "indices": 1,
          "material": 0
        },
        {
          "attributes": {
            "POSITION": 0
          },
          "indices": 1,
          "material": 0
        },
        {
          "attributes": {
            "POSITION": 0
          },
          "indices": 1,
          "material": 0
        },
        {
          "attributes": {
            "POSITION": 0
          },
          "indices": 1,
          "material": 0
        },
        {
          "attributes": {
            "POSITION": 0
          },
          "indices": 1,
          "material": 0
        },
        {
          "attributes": {
            "POSITION": 0
          },
          "indices": 1,
          "material": 0
        },
        {
          "attributes": {
            "POSITION": 0
          },
          "indices": 1,
          "material": 0
        },
        {
          "attributes": {
            "POSITION": 0
          },
          "indices": 1,
          "material": 0
        },
        {
          "attributes": {
            "POSITION": 0
          },
          "indices": 1,
          "material": 0
        },
        {
          "attributes": {
            "POSITION": 0
          },
          "indices": 1,
          "material": 0
        },
        {
          "attributes": {
            "POSITION": 0
          },
          "indices": 1,
          "material": 0
        },
        {
          "attributes": {
            "POSITION": 0
          },
          "indices": 1,
          "material": 0
        },
        {
          "attributes": {
            "POSITION": 0
          },
          "indices": 1,
          "material": 0
        },
        {
          "attributes": {
            "POSITION": 0
          },
          "indices": 1,
          "material": 0
        },
        {
          "attributes": {
            "POSITION": 0
          },
          "indices": 1,
          "material": 0
        },
        {
          "attributes": {
            "POSITION": 0
          },
          "indices": 1,
          "material": 0
        },
        {
          "attributes": {
            "POSITION": 0
          },
          "indices": 1,
          "material": 0
        },
        {
          "attributes": {
            "POSITION": 0
          },
          "indices": 1,
          "material": 0
        },
        {
          "attributes": {
            "POSITION": 0
          },
          "indices": 1,
          "material": 0
        },
        {
          "attributes": {
            "POSITION": 0
          },
          "indices": 1,
          "material": 0
        },
        {
          "attributes": {
            "POSITION": 0
          },
          "indices": 1,
          "material": 0
        },
        {
          "attributes": {
            "POSITION": 0
          },
          "indices": 1,
          "material": 0
        },
        {
          "attributes": {
            "POSITION": 0
          },
          "indices": 1,
          "material": 0
        },
        {
          "attributes": {
            "POSITION": 0
          },
          "indices": 1,
          "material": 0
        },
        {
          "attributes": {
            "POSITION": 0
          },
          "indices": 1,
          "material": 0
        },
        {
          "attributes": {
            "POSITION": 0
          },
          "indices": 1,
          "material": 0
        },
        {
          "attributes": {
            "POSITION": 0
          },
          "indices": 1,
          "material": 0
        },
        {
          "attributes": {
            "POSITION": 0
          },
          "indices": 1,
          "material": 0
        },
        {
          "attributes": {
            "POSITION": 0
          },
          "indices": 1,
          "material": 0
        },
        {
          "attributes": {
            "POSITION": 0
          },
          "indices": 1,
          "material": 0
        },
        {
          "attributes": {
            "POSITION": 0
          },
          "indices": 1,
          "material": 0
        },
        {
          "attributes": {
            "POSITION": 0
          },
          "indices": 1,
          "material": 0
        },
        {
          "attributes": {
            "POSITION": 0
          },
          "indices": 1,
          "material": 0
        },
        {
          "attributes": {
            "POSITION": 0
          },
          "indices": 1,
          "material": 0
        },
        {
          "attributes": {
            "POSITION": 0
          },
          "indices": 1,
          "material": 0
        },
        {
          "attributes": {
            "POSITION": 0
          },
          "indices": 1,
          "material": 0
        },
        {
          "attributes": {
            "POSITION": 0
          },
          "indices": 1,
          "material": 0
        },
        {
          "attributes": {
            "POSITION": 0
          },
          "indices": 1,
          "material": 0
        },
        {
          "attributes": {
            "POSITION": 0
          },
          "indices": 1,
          "material": 0
        },
        {
          "attributes": {
            "POSITION": 0
          },
          "indices": 1,
          "material": 0
        },
        {
          "attributes": {
            "POSITION": 0
          },
          "indices": 1,
          "material": 0
        },
        {
          "attributes": {
            "POSITION": 0
          },
          "indices": 1,
          "material": 0
        },
        {
          "attributes": {
            "POSITION": 0
          },
          "indices": 1,
          "material": 0
        },
        {
          "attributes": {
            "POSITION": 0
          },
          "indices": 1,
          "material": 0
        },
        {
          "attributes": {
            "POSITION": 0
          },
          "indices": 1,
          "material": 0
        },
        {
          "attributes": {
            "POSITION": 0
          },
          "indices": 1,
          "material": 0
        },
        {
          "attributes": {
            "POSITION": 0
          },
          "indices": 1,
          "material": 0
        },
        {
          "attributes": {
            "POSITION": 0
          },
          "indices": 1,
          "material": 0
        },
        {
          "attributes": {
            "POSITION": 0
          },
          "indices": 1,
          "material": 0
        },
        {
          "attributes": {
            "POSITION": 0
          },
          "indices": 1,
          "material": 0
        },
        {
          "attributes": {
            "POSITION": 0
          },
          "indices": 1,
          "material": 0
        },
        {
          "attributes": {
            "POSITION": 0
          },
          "indices": 1,
          "material": 0
        },
        {
          "attributes": {
            "POSITION": 0
          },
          "indices": 1,
          "material": 0
        },
        {
          "attributes": {
            "POSITION": 0
          },
          "indices": 1,
          "material": 0
        },
        {
          "attributes": {
            "POSITION": 0
          },
          "indices": 1,
          "material": 0
        },
        {
          "attributes": {
            "POSITION": 0
          },
          "indices": 1,
          "material": 0
        },
        {
          "attributes": {
            "POSITION": 0
          },
          "indices": 1,
          "material": 0
        },
        {
          "attributes": {
            "POSITION": 0
          },
          "indices": 1,
          "material": 0
        },
        {
          "attributes": {
            "POSITION": 0
          },
          "indices": 1,
          "material": 0
        },
        {
          "attributes": {
            "POSITION": 0
          },
          "indices": 1,
          "material": 0
        },
        {
          "attributes": {
            "POSITION": 0
          },
          "indices": 1,
          "material": 0
        },
        {
          "attributes": {
            "POSITION": 0
          },
          "indices": 1,
          "material": 0
        },
        {
          "attributes": {
            "POSITION": 0
          },
          "indices": 1,
          "material": 0
        },
        {
          "attributes": {
            "POSITION": 0
          },
          "indices": 1,
          "material": 0
        },
        {
          "attributes": {
            "POSITION": 0
          },
          "indices": 1,
          "material": 0
        },
        {
          "attributes": {
            "POSITION": 0
          },
          "indices": 1,
          "material": 0
        },
        {
          "attributes": {
            "POSITION": 0
          },
          "indices": 1,
          "material": 0
        },
        {
          "attributes": {
            "POSITION": 0
          },
          "indices": 1,
          "material": 0
        },
        {
          "attributes": {
            "POSITION": 0
          },
          "indices": 1,
          "material": 0
        },
        {
          "attributes": {
            "POSITION": 0
          },
          "indices": 1,
          "material": 0
        },
        {
          "attributes": {
            "POSITION": 0
          },
          "indices": 1,
          "material": 0
        },
        {
          "attributes": {
            "POSITION": 0
          },
          "indices": 1,
          "material": 0
        },
        {
          "attributes": {
            "POSITION": 0
          },
          "indices": 1,
          "material": 0
        },
        {
          "attributes": {
            "POSITION": 0
          },
          "indices": 1,
          "material": 0
        },
        {
          "attributes": {
            "POSITION": 0
          },
          "indices": 1,
          "material": 0
        },
        {
          "attributes": {
            "POSITION": 0
          },
          "indices": 1,
          "material": 0
        },
        {
          "attributes": {
            "POSITION": 0
          },
          "indices": 1,
          "material": 0
        },
        {
          "attributes": {
            "POSITION": 0
          },
          "indices": 1,
          "material": 0
        },
        {
          "attributes": {
            "POSITION": 0
          },
          "indices": 1,
          "material": 0
        },
        {
          "attributes": {
            "POSITION": 0
          },
          "indices": 1,
          "material": 0
        },
        {
          "attributes": {
            "POSITION": 0
          },
          "indices": 1,
          "material": 0
        },
        {
          "attributes": {
            "POSITION": 0
          },
          "indices": 1,
          "material": 0
        },
        {
          "attributes": {
            "POSITION": 0
          },
          "indices": 1,
          "material": 0
        },
        {
          "attributes": {
            "POSITION": 0
          },
          "indices": 1,
          "material": 0
        },
        {
          "attributes": {
            "POSITION": 0
          },
          "indices": 1,
          "material": 0
        },
        {
          "attributes": {
            "POSITION": 0
          },
          "indices": 1,
          "material": 0
        },
        {
          "attributes": {
            "POSITION": 0
          },
          "indices": 1,
          "material": 0
        },
        {
          "attributes": {
            "POSITION": 0
          },
          "indices": 1,
          "material": 0
        },
        {
          "attributes": {
            "POSITION": 0
          },
          "indices": 1,
          "material": 0
        },
        {
          "attributes": {
            "POSITION": 0
          },
          "indices": 1,
          "material": 0
        },
        {
          "attributes": {
            "POSITION": 0
          },
          "indices": 1,
          "material": 0
        },
        {
          "attributes": {
            "POSITION": 0
          },
          "indices": 1,
          "material": 0
        },
        {
          "attributes": {
            "POSITION": 0
          },
          "indices": 1,
          "material": 0
        },
        {
          "attributes": {
            "POSITION": 0
          },
          "indices": 1,
          "material": 0
        },
        {
          "attributes": {
            "POSITION": 0
          },
          "indices": 1,
          "material": 0
        },
        {
          "attributes": {
            "POSITION": 0
          },
          "indices": 1,
          "material": 0
        },
        {
          "attributes": {
            "POSITION": 0
          },
          "indices": 1,
          "material": 0
        },
        {
          "attributes": {
            "POSITION": 0
          },
          "indices": 1,
          "material": 0
        },
        {
          "attributes": {
            "POSITION": 0
          },
          "indices": 1,
          "material": 0
        },
        {
          "attributes": {
            "POSITION": 0
          },
          "indices": 1,
          "material": 0
        },
        {
          "attributes": {
            "POSITION": 0
          },
          "indices": 1,
          "material": 0
        },
        {
          "attributes": {
            "POSITION": 0
          },
          "indices": 1,
          "material": 0
        },
        {
          "attributes": {
            "POSITION": 0
          },
          "indices": 1,
          "material": 0
        },
        {
          "attributes": {
            "POSITION": 0
          },
          "indices": 1,
          "material": 0
        },
        {
          "attributes": {
            "POSITION": 0
          },
          "indices": 1,
          "material": 0
        },
        {
          "attributes": {
            "POSITION": 0
          },
          "indices": 1,
          "material": 0
        }
      ]
    }
  ],
  "nodes": [
    {
      "mesh": 0
    }
  ],
  "scenes": [
    {
      "nodes": [
        0
      ]
    }
  ],
  "scene": 0
}
